<?xml version="1.0" encoding="UTF-8" standalone="no"?>
<!-- Created with Inkscape (http://www.inkscape.org/) -->

<svg
   xmlns:dc="http://purl.org/dc/elements/1.1/"
   xmlns:cc="http://creativecommons.org/ns#"
   xmlns:rdf="http://www.w3.org/1999/02/22-rdf-syntax-ns#"
   xmlns:svg="http://www.w3.org/2000/svg"
   xmlns="http://www.w3.org/2000/svg"
   xmlns:xlink="http://www.w3.org/1999/xlink"
   xmlns:sodipodi="http://sodipodi.sourceforge.net/DTD/sodipodi-0.dtd"
   xmlns:inkscape="http://www.inkscape.org/namespaces/inkscape"
   width="800px"
   height="600px"
   id="svg6516"
   version="1.1"
   inkscape:version="0.48.2 r9819"
   sodipodi:docname="New document 26">
  <defs
     id="defs6518">
    <linearGradient
       inkscape:collect="always"
       xlink:href="#linearGradient6980-9"
       id="linearGradient4069"
       gradientUnits="userSpaceOnUse"
       gradientTransform="translate(0,-5)"
       x1="411.66666"
       y1="595.25403"
       x2="411.66666"
       y2="105.57361" />
    <linearGradient
       inkscape:collect="always"
       id="linearGradient6980-9">
      <stop
         style="stop-color:#d3efff;stop-opacity:1;"
         offset="0"
         id="stop6982-7" />
      <stop
         style="stop-color:#92bfff;stop-opacity:1"
         offset="1"
         id="stop6984-9" />
    </linearGradient>
    <pattern
       inkscape:collect="always"
       xlink:href="#pattern4871"
       id="pattern4880"
       patternTransform="translate(1064.9999,515)" />
    <pattern
       patternUnits="userSpaceOnUse"
       width="512"
       height="84"
       patternTransform="translate(1065,515)"
       id="pattern4871">
      <g
         id="g4865"
         transform="translate(-1065,-515)">
        <rect
           id="rect4835"
           y="562"
           x="1065"
           height="19"
           width="512"
           style="fill:url(#pattern4863);stroke:none" />
        <rect
           style="fill:url(#pattern4847);stroke:none"
           width="512"
           height="20"
           x="1065"
           y="515"
           id="rect4845" />
        <rect
           style="fill:url(#pattern4853);stroke:none"
           width="512"
           height="25"
           x="1065"
           y="536"
           id="rect4851" />
        <rect
           style="fill:url(#pattern4859);stroke:none"
           width="512"
           height="20"
           x="1065"
           y="579"
           id="rect4857" />
      </g>
    </pattern>
    <pattern
       inkscape:collect="always"
       xlink:href="#pattern4855"
       id="pattern4863"
       patternTransform="matrix(1,0,0,0.63333333,1005,480.3)" />
    <pattern
       inkscape:collect="always"
       xlink:href="#pattern4849"
       id="pattern4855"
       patternTransform="translate(1005,440)" />
    <pattern
       inkscape:collect="always"
       xlink:href="#pattern4837"
       id="pattern4849"
       patternTransform="translate(923,515)" />
    <pattern
       inkscape:collect="always"
       xlink:href="#pattern4110"
       id="pattern4837"
       patternTransform="translate(923,515)" />
    <pattern
       patternUnits="userSpaceOnUse"
       width="512"
       height="512"
       patternTransform="translate(-388,729)"
       id="pattern4110">
      <g
         id="g4104"
         transform="translate(388,-729)">
        <rect
           y="729"
           x="-388"
           height="256"
           width="256"
           id="rect4090"
           style="color:#000000;fill:#7fc9ff;fill-opacity:1;fill-rule:nonzero;stroke:none;stroke-width:2;marker:none;visibility:visible;display:inline;overflow:visible;filter:url(#filter4092);enable-background:accumulate" />
        <use
           x="0"
           y="0"
           xlink:href="#rect4090"
           id="use4096"
           transform="matrix(-1,0,0,1,-264,0)"
           width="800"
           height="600" />
        <use
           height="600"
           width="800"
           transform="matrix(-1,0,0,-1,-264,1970)"
           id="use4098"
           xlink:href="#rect4090"
           y="0"
           x="0" />
        <use
           x="0"
           y="0"
           xlink:href="#rect4090"
           id="use4100"
           transform="matrix(1,0,0,-1,0,1970)"
           width="800"
           height="600" />
      </g>
    </pattern>
    <filter
       color-interpolation-filters="sRGB"
       id="filter4092"
       inkscape:label="Seawater"
       x="0"
       y="0"
       height="1"
       width="1">
      <feTurbulence
         id="feTurbulence4094"
         baseFrequency="0.013245033112582783 0.034782608695652174"
         numOctaves="2" />
      <feColorMatrix
         id="feColorMatrix4102"
         values="0 0 0 0 0 0 0 0 0 0 0 0 0 0 0 0 0 0 1 0 " />
      <feSpecularLighting
         id="feSpecularLighting4839"
         specularExponent="66.5"
         surfaceScale="10"
         specularConstant="0.5">
        <feDistantLight
           id="feDistantLight4841"
           azimuth="270"
           elevation="45" />
      </feSpecularLighting>
      <feColorMatrix
         id="feColorMatrix4843"
         values="0 0 0 0 1 0 0 0 0 1 0 0 0 0 1 0 0 0 1 0 " />
    </filter>
    <filter
       color-interpolation-filters="sRGB"
       id="filter6279"
       inkscape:label="Seawater"
       x="0"
       y="0"
       height="1"
       width="1">
      <feTurbulence
         id="feTurbulence6281"
         baseFrequency="0.013245033112582783 0.034782608695652174"
         numOctaves="2" />
      <feColorMatrix
         id="feColorMatrix6283"
         values="0 0 0 0 0 0 0 0 0 0 0 0 0 0 0 0 0 0 1 0 " />
      <feSpecularLighting
         id="feSpecularLighting6285"
         specularExponent="66.5"
         surfaceScale="10"
         specularConstant="0.5">
        <feDistantLight
           id="feDistantLight6287"
           azimuth="270"
           elevation="45" />
      </feSpecularLighting>
      <feColorMatrix
         id="feColorMatrix6289"
         values="0 0 0 0 1 0 0 0 0 1 0 0 0 0 1 0 0 0 1 0 " />
    </filter>
    <filter
       color-interpolation-filters="sRGB"
       id="filter6291"
       inkscape:label="Seawater"
       x="0"
       y="0"
       height="1"
       width="1">
      <feTurbulence
         id="feTurbulence6293"
         baseFrequency="0.013245033112582783 0.034782608695652174"
         numOctaves="2" />
      <feColorMatrix
         id="feColorMatrix6295"
         values="0 0 0 0 0 0 0 0 0 0 0 0 0 0 0 0 0 0 1 0 " />
      <feSpecularLighting
         id="feSpecularLighting6297"
         specularExponent="66.5"
         surfaceScale="10"
         specularConstant="0.5">
        <feDistantLight
           id="feDistantLight6299"
           azimuth="270"
           elevation="45" />
      </feSpecularLighting>
      <feColorMatrix
         id="feColorMatrix6301"
         values="0 0 0 0 1 0 0 0 0 1 0 0 0 0 1 0 0 0 1 0 " />
    </filter>
    <filter
       color-interpolation-filters="sRGB"
       id="filter6303"
       inkscape:label="Seawater"
       x="0"
       y="0"
       height="1"
       width="1">
      <feTurbulence
         id="feTurbulence6305"
         baseFrequency="0.013245033112582783 0.034782608695652174"
         numOctaves="2" />
      <feColorMatrix
         id="feColorMatrix6307"
         values="0 0 0 0 0 0 0 0 0 0 0 0 0 0 0 0 0 0 1 0 " />
      <feSpecularLighting
         id="feSpecularLighting6309"
         specularExponent="66.5"
         surfaceScale="10"
         specularConstant="0.5">
        <feDistantLight
           id="feDistantLight6311"
           azimuth="270"
           elevation="45" />
      </feSpecularLighting>
      <feColorMatrix
         id="feColorMatrix6313"
         values="0 0 0 0 1 0 0 0 0 1 0 0 0 0 1 0 0 0 1 0 " />
    </filter>
    <pattern
       inkscape:collect="always"
       xlink:href="#pattern4837"
       id="pattern4847"
       patternTransform="matrix(1,0,0,0.23809523,923,515)" />
    <pattern
       inkscape:collect="always"
       xlink:href="#pattern4110"
       id="pattern6316"
       patternTransform="translate(923,515)" />
    <pattern
       patternUnits="userSpaceOnUse"
       width="512"
       height="512"
       patternTransform="translate(-388,729)"
       id="pattern6318">
      <g
         id="g6320"
         transform="translate(388,-729)">
        <rect
           y="729"
           x="-388"
           height="256"
           width="256"
           id="rect6322"
           style="color:#000000;fill:#7fc9ff;fill-opacity:1;fill-rule:nonzero;stroke:none;stroke-width:2;marker:none;visibility:visible;display:inline;overflow:visible;filter:url(#filter4092);enable-background:accumulate" />
        <use
           x="0"
           y="0"
           xlink:href="#rect4090"
           id="use6324"
           transform="matrix(-1,0,0,1,-264,0)"
           width="800"
           height="600" />
        <use
           height="600"
           width="800"
           transform="matrix(-1,0,0,-1,-264,1970)"
           id="use6326"
           xlink:href="#rect4090"
           y="0"
           x="0" />
        <use
           x="0"
           y="0"
           xlink:href="#rect4090"
           id="use6328"
           transform="matrix(1,0,0,-1,0,1970)"
           width="800"
           height="600" />
      </g>
    </pattern>
    <filter
       color-interpolation-filters="sRGB"
       id="filter6330"
       inkscape:label="Seawater"
       x="0"
       y="0"
       height="1"
       width="1">
      <feTurbulence
         id="feTurbulence6332"
         baseFrequency="0.013245033112582783 0.034782608695652174"
         numOctaves="2" />
      <feColorMatrix
         id="feColorMatrix6334"
         values="0 0 0 0 0 0 0 0 0 0 0 0 0 0 0 0 0 0 1 0 " />
      <feSpecularLighting
         id="feSpecularLighting6336"
         specularExponent="66.5"
         surfaceScale="10"
         specularConstant="0.5">
        <feDistantLight
           id="feDistantLight6338"
           azimuth="270"
           elevation="45" />
      </feSpecularLighting>
      <feColorMatrix
         id="feColorMatrix6340"
         values="0 0 0 0 1 0 0 0 0 1 0 0 0 0 1 0 0 0 1 0 " />
    </filter>
    <filter
       color-interpolation-filters="sRGB"
       id="filter6342"
       inkscape:label="Seawater"
       x="0"
       y="0"
       height="1"
       width="1">
      <feTurbulence
         id="feTurbulence6344"
         baseFrequency="0.013245033112582783 0.034782608695652174"
         numOctaves="2" />
      <feColorMatrix
         id="feColorMatrix6346"
         values="0 0 0 0 0 0 0 0 0 0 0 0 0 0 0 0 0 0 1 0 " />
      <feSpecularLighting
         id="feSpecularLighting6348"
         specularExponent="66.5"
         surfaceScale="10"
         specularConstant="0.5">
        <feDistantLight
           id="feDistantLight6350"
           azimuth="270"
           elevation="45" />
      </feSpecularLighting>
      <feColorMatrix
         id="feColorMatrix6352"
         values="0 0 0 0 1 0 0 0 0 1 0 0 0 0 1 0 0 0 1 0 " />
    </filter>
    <filter
       color-interpolation-filters="sRGB"
       id="filter6354"
       inkscape:label="Seawater"
       x="0"
       y="0"
       height="1"
       width="1">
      <feTurbulence
         id="feTurbulence6356"
         baseFrequency="0.013245033112582783 0.034782608695652174"
         numOctaves="2" />
      <feColorMatrix
         id="feColorMatrix6358"
         values="0 0 0 0 0 0 0 0 0 0 0 0 0 0 0 0 0 0 1 0 " />
      <feSpecularLighting
         id="feSpecularLighting6360"
         specularExponent="66.5"
         surfaceScale="10"
         specularConstant="0.5">
        <feDistantLight
           id="feDistantLight6362"
           azimuth="270"
           elevation="45" />
      </feSpecularLighting>
      <feColorMatrix
         id="feColorMatrix6364"
         values="0 0 0 0 1 0 0 0 0 1 0 0 0 0 1 0 0 0 1 0 " />
    </filter>
    <filter
       color-interpolation-filters="sRGB"
       id="filter6366"
       inkscape:label="Seawater"
       x="0"
       y="0"
       height="1"
       width="1">
      <feTurbulence
         id="feTurbulence6368"
         baseFrequency="0.013245033112582783 0.034782608695652174"
         numOctaves="2" />
      <feColorMatrix
         id="feColorMatrix6370"
         values="0 0 0 0 0 0 0 0 0 0 0 0 0 0 0 0 0 0 1 0 " />
      <feSpecularLighting
         id="feSpecularLighting6372"
         specularExponent="66.5"
         surfaceScale="10"
         specularConstant="0.5">
        <feDistantLight
           id="feDistantLight6374"
           azimuth="270"
           elevation="45" />
      </feSpecularLighting>
      <feColorMatrix
         id="feColorMatrix6376"
         values="0 0 0 0 1 0 0 0 0 1 0 0 0 0 1 0 0 0 1 0 " />
    </filter>
    <pattern
       inkscape:collect="always"
       xlink:href="#pattern4849"
       id="pattern4853"
       patternTransform="matrix(1,0,0,0.42372881,923,525.40678)" />
    <pattern
       inkscape:collect="always"
       xlink:href="#pattern4837"
       id="pattern6379"
       patternTransform="translate(923,515)" />
    <pattern
       inkscape:collect="always"
       xlink:href="#pattern4110"
       id="pattern6381"
       patternTransform="translate(923,515)" />
    <pattern
       patternUnits="userSpaceOnUse"
       width="512"
       height="512"
       patternTransform="translate(-388,729)"
       id="pattern6383">
      <g
         id="g6385"
         transform="translate(388,-729)">
        <rect
           y="729"
           x="-388"
           height="256"
           width="256"
           id="rect6387"
           style="color:#000000;fill:#7fc9ff;fill-opacity:1;fill-rule:nonzero;stroke:none;stroke-width:2;marker:none;visibility:visible;display:inline;overflow:visible;filter:url(#filter4092);enable-background:accumulate" />
        <use
           x="0"
           y="0"
           xlink:href="#rect4090"
           id="use6389"
           transform="matrix(-1,0,0,1,-264,0)"
           width="800"
           height="600" />
        <use
           height="600"
           width="800"
           transform="matrix(-1,0,0,-1,-264,1970)"
           id="use6391"
           xlink:href="#rect4090"
           y="0"
           x="0" />
        <use
           x="0"
           y="0"
           xlink:href="#rect4090"
           id="use6393"
           transform="matrix(1,0,0,-1,0,1970)"
           width="800"
           height="600" />
      </g>
    </pattern>
    <filter
       color-interpolation-filters="sRGB"
       id="filter6395"
       inkscape:label="Seawater"
       x="0"
       y="0"
       height="1"
       width="1">
      <feTurbulence
         id="feTurbulence6397"
         baseFrequency="0.013245033112582783 0.034782608695652174"
         numOctaves="2" />
      <feColorMatrix
         id="feColorMatrix6399"
         values="0 0 0 0 0 0 0 0 0 0 0 0 0 0 0 0 0 0 1 0 " />
      <feSpecularLighting
         id="feSpecularLighting6401"
         specularExponent="66.5"
         surfaceScale="10"
         specularConstant="0.5">
        <feDistantLight
           id="feDistantLight6403"
           azimuth="270"
           elevation="45" />
      </feSpecularLighting>
      <feColorMatrix
         id="feColorMatrix6405"
         values="0 0 0 0 1 0 0 0 0 1 0 0 0 0 1 0 0 0 1 0 " />
    </filter>
    <filter
       color-interpolation-filters="sRGB"
       id="filter6407"
       inkscape:label="Seawater"
       x="0"
       y="0"
       height="1"
       width="1">
      <feTurbulence
         id="feTurbulence6409"
         baseFrequency="0.013245033112582783 0.034782608695652174"
         numOctaves="2" />
      <feColorMatrix
         id="feColorMatrix6411"
         values="0 0 0 0 0 0 0 0 0 0 0 0 0 0 0 0 0 0 1 0 " />
      <feSpecularLighting
         id="feSpecularLighting6413"
         specularExponent="66.5"
         surfaceScale="10"
         specularConstant="0.5">
        <feDistantLight
           id="feDistantLight6415"
           azimuth="270"
           elevation="45" />
      </feSpecularLighting>
      <feColorMatrix
         id="feColorMatrix6417"
         values="0 0 0 0 1 0 0 0 0 1 0 0 0 0 1 0 0 0 1 0 " />
    </filter>
    <filter
       color-interpolation-filters="sRGB"
       id="filter6419"
       inkscape:label="Seawater"
       x="0"
       y="0"
       height="1"
       width="1">
      <feTurbulence
         id="feTurbulence6421"
         baseFrequency="0.013245033112582783 0.034782608695652174"
         numOctaves="2" />
      <feColorMatrix
         id="feColorMatrix6423"
         values="0 0 0 0 0 0 0 0 0 0 0 0 0 0 0 0 0 0 1 0 " />
      <feSpecularLighting
         id="feSpecularLighting6425"
         specularExponent="66.5"
         surfaceScale="10"
         specularConstant="0.5">
        <feDistantLight
           id="feDistantLight6427"
           azimuth="270"
           elevation="45" />
      </feSpecularLighting>
      <feColorMatrix
         id="feColorMatrix6429"
         values="0 0 0 0 1 0 0 0 0 1 0 0 0 0 1 0 0 0 1 0 " />
    </filter>
    <filter
       color-interpolation-filters="sRGB"
       id="filter6431"
       inkscape:label="Seawater"
       x="0"
       y="0"
       height="1"
       width="1">
      <feTurbulence
         id="feTurbulence6433"
         baseFrequency="0.013245033112582783 0.034782608695652174"
         numOctaves="2" />
      <feColorMatrix
         id="feColorMatrix6435"
         values="0 0 0 0 0 0 0 0 0 0 0 0 0 0 0 0 0 0 1 0 " />
      <feSpecularLighting
         id="feSpecularLighting6437"
         specularExponent="66.5"
         surfaceScale="10"
         specularConstant="0.5">
        <feDistantLight
           id="feDistantLight6439"
           azimuth="270"
           elevation="45" />
      </feSpecularLighting>
      <feColorMatrix
         id="feColorMatrix6441"
         values="0 0 0 0 1 0 0 0 0 1 0 0 0 0 1 0 0 0 1 0 " />
    </filter>
    <pattern
       inkscape:collect="always"
       xlink:href="#pattern4855"
       id="pattern4859"
       patternTransform="matrix(1,0,0,0.74044268,1003,449.67403)" />
    <pattern
       inkscape:collect="always"
       xlink:href="#pattern4849"
       id="pattern6444"
       patternTransform="translate(1005,440)" />
    <pattern
       inkscape:collect="always"
       xlink:href="#pattern4837"
       id="pattern6446"
       patternTransform="translate(923,515)" />
    <pattern
       inkscape:collect="always"
       xlink:href="#pattern4110"
       id="pattern6448"
       patternTransform="translate(923,515)" />
    <pattern
       patternUnits="userSpaceOnUse"
       width="512"
       height="512"
       patternTransform="translate(-388,729)"
       id="pattern6450">
      <g
         id="g6452"
         transform="translate(388,-729)">
        <rect
           y="729"
           x="-388"
           height="256"
           width="256"
           id="rect6454"
           style="color:#000000;fill:#7fc9ff;fill-opacity:1;fill-rule:nonzero;stroke:none;stroke-width:2;marker:none;visibility:visible;display:inline;overflow:visible;filter:url(#filter4092);enable-background:accumulate" />
        <use
           x="0"
           y="0"
           xlink:href="#rect4090"
           id="use6456"
           transform="matrix(-1,0,0,1,-264,0)"
           width="800"
           height="600" />
        <use
           height="600"
           width="800"
           transform="matrix(-1,0,0,-1,-264,1970)"
           id="use6458"
           xlink:href="#rect4090"
           y="0"
           x="0" />
        <use
           x="0"
           y="0"
           xlink:href="#rect4090"
           id="use6460"
           transform="matrix(1,0,0,-1,0,1970)"
           width="800"
           height="600" />
      </g>
    </pattern>
    <filter
       color-interpolation-filters="sRGB"
       id="filter6462"
       inkscape:label="Seawater"
       x="0"
       y="0"
       height="1"
       width="1">
      <feTurbulence
         id="feTurbulence6464"
         baseFrequency="0.013245033112582783 0.034782608695652174"
         numOctaves="2" />
      <feColorMatrix
         id="feColorMatrix6466"
         values="0 0 0 0 0 0 0 0 0 0 0 0 0 0 0 0 0 0 1 0 " />
      <feSpecularLighting
         id="feSpecularLighting6468"
         specularExponent="66.5"
         surfaceScale="10"
         specularConstant="0.5">
        <feDistantLight
           id="feDistantLight6470"
           azimuth="270"
           elevation="45" />
      </feSpecularLighting>
      <feColorMatrix
         id="feColorMatrix6472"
         values="0 0 0 0 1 0 0 0 0 1 0 0 0 0 1 0 0 0 1 0 " />
    </filter>
    <filter
       color-interpolation-filters="sRGB"
       id="filter6474"
       inkscape:label="Seawater"
       x="0"
       y="0"
       height="1"
       width="1">
      <feTurbulence
         id="feTurbulence6476"
         baseFrequency="0.013245033112582783 0.034782608695652174"
         numOctaves="2" />
      <feColorMatrix
         id="feColorMatrix6478"
         values="0 0 0 0 0 0 0 0 0 0 0 0 0 0 0 0 0 0 1 0 " />
      <feSpecularLighting
         id="feSpecularLighting6480"
         specularExponent="66.5"
         surfaceScale="10"
         specularConstant="0.5">
        <feDistantLight
           id="feDistantLight6482"
           azimuth="270"
           elevation="45" />
      </feSpecularLighting>
      <feColorMatrix
         id="feColorMatrix6484"
         values="0 0 0 0 1 0 0 0 0 1 0 0 0 0 1 0 0 0 1 0 " />
    </filter>
    <filter
       color-interpolation-filters="sRGB"
       id="filter6486"
       inkscape:label="Seawater"
       x="0"
       y="0"
       height="1"
       width="1">
      <feTurbulence
         id="feTurbulence6488"
         baseFrequency="0.013245033112582783 0.034782608695652174"
         numOctaves="2" />
      <feColorMatrix
         id="feColorMatrix6490"
         values="0 0 0 0 0 0 0 0 0 0 0 0 0 0 0 0 0 0 1 0 " />
      <feSpecularLighting
         id="feSpecularLighting6492"
         specularExponent="66.5"
         surfaceScale="10"
         specularConstant="0.5">
        <feDistantLight
           id="feDistantLight6494"
           azimuth="270"
           elevation="45" />
      </feSpecularLighting>
      <feColorMatrix
         id="feColorMatrix6496"
         values="0 0 0 0 1 0 0 0 0 1 0 0 0 0 1 0 0 0 1 0 " />
    </filter>
    <filter
       color-interpolation-filters="sRGB"
       id="filter6498"
       inkscape:label="Seawater"
       x="0"
       y="0"
       height="1"
       width="1">
      <feTurbulence
         id="feTurbulence6500"
         baseFrequency="0.013245033112582783 0.034782608695652174"
         numOctaves="2" />
      <feColorMatrix
         id="feColorMatrix6502"
         values="0 0 0 0 0 0 0 0 0 0 0 0 0 0 0 0 0 0 1 0 " />
      <feSpecularLighting
         id="feSpecularLighting6504"
         specularExponent="66.5"
         surfaceScale="10"
         specularConstant="0.5">
        <feDistantLight
           id="feDistantLight6506"
           azimuth="270"
           elevation="45" />
      </feSpecularLighting>
      <feColorMatrix
         id="feColorMatrix6508"
         values="0 0 0 0 1 0 0 0 0 1 0 0 0 0 1 0 0 0 1 0 " />
    </filter>
    <linearGradient
       y2="105.57361"
       x2="411.66666"
       y1="595.25403"
       x1="411.66666"
       gradientTransform="translate(0,-5)"
       gradientUnits="userSpaceOnUse"
       id="linearGradient6514"
       xlink:href="#linearGradient6980-9"
       inkscape:collect="always" />
  </defs>
  <sodipodi:namedview
     id="base"
     pagecolor="#ffffff"
     bordercolor="#666666"
     borderopacity="1.0"
     inkscape:pageopacity="0.0"
     inkscape:pageshadow="2"
     inkscape:zoom="0.25"
     inkscape:cx="1007.3839"
     inkscape:cy="-21.39559"
     inkscape:current-layer="layer2"
     inkscape:document-units="px"
     showgrid="false"
     inkscape:window-width="1680"
     inkscape:window-height="1022"
     inkscape:window-x="1280"
     inkscape:window-y="0"
     inkscape:window-maximized="1" />
  <metadata
     id="metadata6521">
    <rdf:RDF>
      <cc:Work
         rdf:about="">
        <dc:format>image/svg+xml</dc:format>
        <dc:type
           rdf:resource="http://purl.org/dc/dcmitype/StillImage" />
        <dc:title></dc:title>
      </cc:Work>
    </rdf:RDF>
  </metadata>
  <g
     id="layer1"
     inkscape:label="Background"
     inkscape:groupmode="layer"
     sodipodi:insensitive="true">
    <rect
       style="color:#000000;fill:url(#linearGradient6514);fill-opacity:1;stroke:none;stroke-width:2;marker:none;visibility:visible;display:inline;overflow:visible;enable-background:accumulate"
       id="rect6470"
       width="800"
       height="600"
       x="-1.8652343e-05"
       y="-5" />
    <rect
       style="color:#000000;fill:#7fc9ff;fill-opacity:1;fill-rule:nonzero;stroke:none;stroke-width:2;marker:none;visibility:visible;display:inline;overflow:visible;enable-background:accumulate"
       id="rect7042"
       width="2077.8333"
       height="85"
       x="-500.83334"
       y="515" />
    <rect
       style="fill:url(#pattern4880);stroke:none;display:inline"
       width="1223"
       height="84"
       x="1.9999697"
       y="515"
       id="rect4878" />
  </g>
  <g
     inkscape:groupmode="layer"
     id="layer2"
     inkscape:label="FG">
    <path
       style="color:#000000;fill:#999999;fill-opacity:1;fill-rule:nonzero;stroke:none;stroke-width:2;marker:none;visibility:visible;display:inline;overflow:visible;enable-background:accumulate"
       d="m 502.02003,512.17157 c -16.78317,1.6414 -14.60225,9.33811 -25.71416,16.20524 -28.38698,17.54309 -39.6943,48.13108 -41.20927,71.28986 l 162.5,0 c 190.30718,-0.39292 695.6037,0.21052 885.9034,1.64859 l -9.879,-85.92391 -375.002,-14.31491 -87.6542,-44.79673 -212.53487,10.88696 -92.67671,29.93592 C 686.2283,504.47313 673.96623,503 634.34687,503 L 532.5,508 z"
       id="rect7040"
       inkscape:connector-curvature="0"
       sodipodi:nodetypes="csccccccccscc" />
    <path
       sodipodi:nodetypes="ccccc"
       inkscape:connector-curvature="0"
       id="path7650"
       d="m 479.80798,526.2352 c -32.61361,17.15921 -47.29102,47.54381 -48.96138,74.93147 l 12.3667,0 c -0.30122,-37.84716 15.07853,-59.85236 35.91099,-72.69826 z"
       style="color:#000000;fill:#ffffff;fill-opacity:1;fill-rule:nonzero;stroke:none;stroke-width:2;marker:none;visibility:visible;display:inline;overflow:visible;enable-background:accumulate" />
    <path
       style="opacity:1;color:#000000;fill:#b3b3b3;fill-opacity:1;fill-rule:nonzero;stroke:none;stroke-width:1;marker:none;visibility:visible;display:inline;overflow:visible;enable-background:accumulate"
       d="m 494,513 c 0,0 -15,24 -15.5,35 -0.5,11 0,51 0,51 0,0 3,2 1,2 -2,0 -35,1.5 -35,1.5 0,0 -3.5,-11 -1.5,-19 2,-8 8,-32.5 12.5,-37.5 4.5,-5 23,-17.5 23,-17.5 z"
       id="path6878"
       inkscape:connector-curvature="0" />
    <rect
       style="color:#000000;fill:#a2b7c4;fill-opacity:1;fill-rule:nonzero;stroke:none;stroke-width:1;marker:none;visibility:visible;display:inline;overflow:visible;enable-background:accumulate"
       id="rect6880"
       width="72.024544"
       height="127.77382"
       x="529.11395"
       y="382.00586" />
    <rect
       y="293.54706"
       x="605.83575"
       height="214.26685"
       width="89.24781"
       id="rect6882"
       style="color:#000000;fill:#a2b7c4;fill-opacity:1;fill-rule:nonzero;stroke:none;stroke-width:1;marker:none;visibility:visible;display:inline;overflow:visible;enable-background:accumulate" />
    <g
       id="g7459"
       transform="matrix(1,0,0,0.70571035,0,177.16237)">
      <path
         inkscape:connector-curvature="0"
         id="path6884"
         d="m 504.06196,600.43425 c -3.13151,-43.84103 1.56575,-97.07656 6.263,-106.47107 4.69725,-9.39451 -10.96026,-20.35476 17.22326,-21.92051 28.18352,-1.56576 123.69433,-7.82876 151.87785,-3.13151 28.18352,4.69726 97.07656,0 97.07656,0 l 57.93279,-10.96025 131.52308,-15.65751 79.8533,3.1315 4.6973,3.1315 c 0,0 -15.6576,9.39451 -25.0521,7.82876 -9.3945,-1.56576 -79.85326,-6.26301 -79.85326,-6.26301 0,0 -159.7066,34.44652 -170.66686,34.44652 -10.96026,0 -122.12858,-7.82875 -122.12858,-7.82875 0,0 -103.33957,0 -112.73407,1.56575 -9.39451,1.56575 -4.69725,6.263 -4.69725,6.263 l 109.60257,115.86558"
         style="color:#000000;fill:#333333;fill-opacity:1;fill-rule:nonzero;stroke:none;stroke-width:1;marker:none;visibility:visible;display:inline;overflow:visible;enable-background:accumulate" />
      <path
         inkscape:connector-curvature="0"
         id="path6886"
         d="m 565.90912,598.8685 -43.05815,-118.99708 3.91437,-5.48013 126.04296,-2.34862 97.85944,5.48012 c 0,0 21.13764,-1.56575 25.83489,-1.56575 4.69725,0 97.07656,-17.22326 97.07656,-17.22326 l 59.49854,-10.17738 -65.76154,14.09176 c 0,0 -91.59643,16.44039 -96.29369,16.44039 -4.69725,0 -122.12858,-6.26301 -122.12858,-6.26301 l -118.99707,2.34863 -5.48013,4.69725 0,3.91438 L 574.52075,602"
         style="color:#000000;fill:#ffffff;fill-opacity:1;fill-rule:nonzero;stroke:none;stroke-width:1;marker:none;visibility:visible;display:inline;overflow:visible;enable-background:accumulate" />
      <rect
         y="555.02747"
         x="538.50848"
         height="11.743133"
         width="31.31502"
         id="rect6888"
         style="color:#000000;fill:#333333;fill-opacity:1;fill-rule:nonzero;stroke:none;stroke-width:1;marker:none;visibility:visible;display:inline;overflow:visible;enable-background:accumulate" />
      <rect
         style="color:#000000;fill:#333333;fill-opacity:1;fill-rule:nonzero;stroke:none;stroke-width:1;marker:none;visibility:visible;display:inline;overflow:visible;enable-background:accumulate"
         id="rect6890"
         width="31.31502"
         height="8.6116304"
         x="525.98248"
         y="525.2782" />
      <rect
         y="504.14056"
         x="517.37085"
         height="7.0458794"
         width="31.31502"
         id="rect6892"
         style="color:#000000;fill:#333333;fill-opacity:1;fill-rule:nonzero;stroke:none;stroke-width:1;marker:none;visibility:visible;display:inline;overflow:visible;enable-background:accumulate" />
    </g>
    <g
       id="g6896">
      <path
         inkscape:connector-curvature="0"
         id="path6894"
         d="M 453.96809,705.5 453.5,642.77661 c 0,0 0.46809,-3.27661 2.34042,-3.27661 1.87235,0 18.28023,-0.35355 18.28023,-0.35355 l 1.40425,2.80851 -17.81213,-0.11454 -1.87235,1.87235 0,61.78723"
         style="color:#000000;fill:#e6e6e6;fill-opacity:1;fill-rule:nonzero;stroke:none;stroke-width:1;marker:none;visibility:visible;display:inline;overflow:visible;enable-background:accumulate"
         sodipodi:nodetypes="ccsccccc" />
    </g>
    <use
       x="0"
       y="0"
       xlink:href="#g6896"
       id="use6899"
       transform="matrix(0.4953466,0,0,0.4953466,282.55378,126.09859)"
       width="800"
       height="600" />
    <use
       height="600"
       width="800"
       transform="matrix(0.63175672,0,0,0.63175672,216.38597,40.821496)"
       id="use6901"
       xlink:href="#g6896"
       y="0"
       x="0" />
    <use
       x="0"
       y="0"
       xlink:href="#g6896"
       id="use6903"
       transform="matrix(0.92830047,0,0,0.92830047,73.683191,-144.12097)"
       width="800"
       height="600" />
    <use
       height="600"
       width="800"
       transform="matrix(1.4087014,0,0,1.4087014,-151.61593,-445.46577)"
       id="use6905"
       xlink:href="#g6896"
       y="0"
       x="0" />
    <use
       x="0"
       y="0"
       xlink:href="#g6896"
       id="use6907"
       transform="matrix(1.8535169,0,0,1.8535169,-358.81994,-713.09354)"
       width="800"
       height="600" />
    <g
       id="g6913"
       transform="matrix(1.1219464,0,0,0.56488949,-91.643874,203.0298)">
      <path
         sodipodi:nodetypes="ccccc"
         inkscape:connector-curvature="0"
         id="path6909"
         d="M 588.93934,604.42462 587,445 l -27,-1 1,120.35451 z"
         style="color:#000000;fill:#e6e6e6;fill-opacity:1;fill-rule:nonzero;stroke:none;stroke-width:1;marker:none;visibility:visible;display:inline;overflow:visible;enable-background:accumulate" />
      <path
         style="color:#000000;fill:#b2b2b2;fill-opacity:1;fill-rule:nonzero;stroke:none;stroke-width:1;marker:none;visibility:visible;display:inline;overflow:visible;enable-background:accumulate"
         d="M 588.93934,604.42462 587.27883,446 691,444 690.47329,598.11372 z"
         id="path6911"
         inkscape:connector-curvature="0"
         sodipodi:nodetypes="ccccc" />
    </g>
    <path
       style="color:#000000;fill:#467c31;fill-opacity:1;fill-rule:nonzero;stroke:none;stroke-width:1;marker:none;visibility:visible;display:inline;overflow:visible;enable-background:accumulate"
       d="m 657.50555,597.30275 c -7.82875,-7.10906 -63.41291,-44.84175 -61.84716,-47.02916 1.56575,-2.1874 25.05202,-2.73425 25.05202,-2.73425 0,0 29.74927,-3.28111 38.3609,-4.37481 8.61163,-1.0937 22.70339,-7.65591 26.61776,-7.65591 3.91438,0 36.01228,0 47.75541,-0.54685 11.74313,-0.54685 16.44038,0.54685 21.13764,1.64056 4.69725,1.0937 49.32115,1.64054 53.23553,0 3.91438,-1.64056 46.18966,-5.46851 46.18966,-5.46851 l 62.63004,-10.39016 46.97253,-11.48387 187.89012,25.70198 c 0,0 -0.7829,5.46851 -6.263,5.46851 -5.4801,0 -14.0918,-0.54685 -23.4863,1.0937 -9.3945,1.64055 -18.789,1.0937 -32.8807,4.37481 -14.0918,3.2811 -36.7952,6.56221 -46.9726,7.65591 -10.1774,1.0937 -75.15602,6.01535 -86.11628,8.20276 -10.96025,2.1874 -21.92051,5.4685 -28.96639,7.65591 -7.04588,2.1874 -24.26914,2.1874 -40.70953,1.64054 -16.44038,-0.54684 -33.66364,-3.2811 -60.28141,2.73426 -26.61777,6.01536 -39.92665,9.84331 -48.53828,10.93701 -8.61163,1.0937 -34.44652,3.82796 -38.3609,4.3748 -3.91438,0.54686 -30.53215,3.28111 -34.44652,3.28111 -3.91438,0 -46.97254,4.92166 -46.97254,4.92166 z"
       id="path7457"
       inkscape:connector-curvature="0" />
    <g
       id="g7445"
       transform="matrix(1.565751,0,0,1.565751,-272.55055,-317.58211)">
      <path
         inkscape:connector-curvature="0"
         id="path7443"
         d="m 584.0702,555.80583 c 4.94975,-6.71752 4.94975,-5.3033 4.5962,-9.54595 -0.35356,-4.24264 1.06066,-4.94974 -1.41422,-6.71751 -2.47487,-1.76777 -6.71751,-6.36396 -6.71751,-6.36396 0,0 5.3033,1.41421 7.42462,3.88909 2.12132,2.47487 2.47487,3.88908 3.88909,2.82842 1.41421,-1.06066 3.53553,-1.06066 3.53553,-4.24264 0,-3.18198 2.82843,-6.0104 2.82843,-3.18198 0,2.82843 -0.70711,5.3033 -1.41422,7.07107 -0.7071,1.76777 -0.7071,4.59619 0.70711,4.94975 1.41421,0.35355 3.53553,-0.70711 4.94975,-1.41422 1.41421,-0.7071 4.94975,0 3.53553,1.41422 -1.41421,1.41421 -2.12132,1.76776 -5.65685,2.47487 -3.53554,0.70711 -3.18198,2.47488 -2.47488,4.24264 0.70711,1.76777 -1.0036,2.17838 -1.0036,2.17838 l 1.69933,3.56976 -4.58481,-2.2126 -1.27734,2.17837 -2.89687,-1.67658 z"
         style="color:#000000;fill:#634836;fill-opacity:1;fill-rule:nonzero;stroke:none;stroke-width:1;marker:none;visibility:visible;display:inline;overflow:visible;enable-background:accumulate"
         sodipodi:nodetypes="csscsssssssssscccccc" />
      <path
         d="m 594,524 c 0,3.31371 -2.68629,6 -6,6 -3.31371,0 -6,-2.68629 -6,-6 0,-3.31371 2.68629,-6 6,-6 3.31371,0 6,2.68629 6,6 z"
         sodipodi:ry="6"
         sodipodi:rx="6"
         sodipodi:cy="524"
         sodipodi:cx="588"
         id="path7425"
         style="color:#000000;fill:#225e22;fill-opacity:1;fill-rule:nonzero;stroke:none;stroke-width:1;marker:none;visibility:visible;display:inline;overflow:visible;enable-background:accumulate"
         sodipodi:type="arc" />
      <path
         transform="translate(5.6568543,-4.2426407)"
         d="m 594,524 c 0,3.31371 -2.68629,6 -6,6 -3.31371,0 -6,-2.68629 -6,-6 0,-3.31371 2.68629,-6 6,-6 3.31371,0 6,2.68629 6,6 z"
         sodipodi:ry="6"
         sodipodi:rx="6"
         sodipodi:cy="524"
         sodipodi:cx="588"
         id="path7429"
         style="color:#000000;fill:#225e22;fill-opacity:1;fill-rule:nonzero;stroke:none;stroke-width:1;marker:none;visibility:visible;display:inline;overflow:visible;enable-background:accumulate"
         sodipodi:type="arc" />
      <path
         transform="translate(10.253048,0.70710678)"
         d="m 594,524 c 0,3.31371 -2.68629,6 -6,6 -3.31371,0 -6,-2.68629 -6,-6 0,-3.31371 2.68629,-6 6,-6 3.31371,0 6,2.68629 6,6 z"
         sodipodi:ry="6"
         sodipodi:rx="6"
         sodipodi:cy="524"
         sodipodi:cx="588"
         id="path7431"
         style="color:#000000;fill:#225e22;fill-opacity:1;fill-rule:nonzero;stroke:none;stroke-width:1;marker:none;visibility:visible;display:inline;overflow:visible;enable-background:accumulate"
         sodipodi:type="arc" />
      <path
         transform="translate(14.142136,1.767767)"
         d="m 594,524 c 0,3.31371 -2.68629,6 -6,6 -3.31371,0 -6,-2.68629 -6,-6 0,-3.31371 2.68629,-6 6,-6 3.31371,0 6,2.68629 6,6 z"
         sodipodi:ry="6"
         sodipodi:rx="6"
         sodipodi:cy="524"
         sodipodi:cx="588"
         id="path7433"
         style="color:#000000;fill:#225e22;fill-opacity:1;fill-rule:nonzero;stroke:none;stroke-width:1;marker:none;visibility:visible;display:inline;overflow:visible;enable-background:accumulate"
         sodipodi:type="arc" />
      <path
         transform="translate(9.8994949,8.4852814)"
         d="m 594,524 c 0,3.31371 -2.68629,6 -6,6 -3.31371,0 -6,-2.68629 -6,-6 0,-3.31371 2.68629,-6 6,-6 3.31371,0 6,2.68629 6,6 z"
         sodipodi:ry="6"
         sodipodi:rx="6"
         sodipodi:cy="524"
         sodipodi:cx="588"
         id="path7435"
         style="color:#000000;fill:#225e22;fill-opacity:1;fill-rule:nonzero;stroke:none;stroke-width:1;marker:none;visibility:visible;display:inline;overflow:visible;enable-background:accumulate"
         sodipodi:type="arc" />
      <path
         transform="translate(1.0606602,4.9497475)"
         d="m 594,524 c 0,3.31371 -2.68629,6 -6,6 -3.31371,0 -6,-2.68629 -6,-6 0,-3.31371 2.68629,-6 6,-6 3.31371,0 6,2.68629 6,6 z"
         sodipodi:ry="6"
         sodipodi:rx="6"
         sodipodi:cy="524"
         sodipodi:cx="588"
         id="path7437"
         style="color:#000000;fill:#225e22;fill-opacity:1;fill-rule:nonzero;stroke:none;stroke-width:1;marker:none;visibility:visible;display:inline;overflow:visible;enable-background:accumulate"
         sodipodi:type="arc" />
      <path
         transform="translate(-9.5459416,6.363961)"
         d="m 594,524 c 0,3.31371 -2.68629,6 -6,6 -3.31371,0 -6,-2.68629 -6,-6 0,-3.31371 2.68629,-6 6,-6 3.31371,0 6,2.68629 6,6 z"
         sodipodi:ry="6"
         sodipodi:rx="6"
         sodipodi:cy="524"
         sodipodi:cx="588"
         id="path7439"
         style="color:#000000;fill:#225e22;fill-opacity:1;fill-rule:nonzero;stroke:none;stroke-width:1;marker:none;visibility:visible;display:inline;overflow:visible;enable-background:accumulate"
         sodipodi:type="arc" />
      <path
         transform="translate(0.35355339,8.4852814)"
         d="m 594,524 c 0,3.31371 -2.68629,6 -6,6 -3.31371,0 -6,-2.68629 -6,-6 0,-3.31371 2.68629,-6 6,-6 3.31371,0 6,2.68629 6,6 z"
         sodipodi:ry="6"
         sodipodi:rx="6"
         sodipodi:cy="524"
         sodipodi:cx="588"
         id="path7441"
         style="color:#000000;fill:#225e22;fill-opacity:1;fill-rule:nonzero;stroke:none;stroke-width:1;marker:none;visibility:visible;display:inline;overflow:visible;enable-background:accumulate"
         sodipodi:type="arc" />
      <path
         transform="translate(20.152543,15.909903)"
         sodipodi:type="arc"
         style="color:#000000;fill:#225e22;fill-opacity:1;fill-rule:nonzero;stroke:none;stroke-width:1;marker:none;visibility:visible;display:inline;overflow:visible;enable-background:accumulate"
         id="path7427"
         sodipodi:cx="588"
         sodipodi:cy="524"
         sodipodi:rx="6"
         sodipodi:ry="6"
         d="m 594,524 c 0,3.31371 -2.68629,6 -6,6 -3.31371,0 -6,-2.68629 -6,-6 0,-3.31371 2.68629,-6 6,-6 3.31371,0 6,2.68629 6,6 z" />
    </g>
  </g>
</svg>
